<svg width="64" height="32" viewBox="0 0 64 32" fill="none" xmlns="http://www.w3.org/2000/svg">
<path d="M1.728 24.5V1.268H6.624V24.5H1.728ZM17.5598 24.852C15.9598 24.852 14.5091 24.5 13.2078 23.796C11.9278 23.0707 10.9144 22.0893 10.1678 20.852C9.42108 19.6147 9.04775 18.228 9.04775 16.692C9.04775 15.156 9.42108 13.78 10.1678 12.564C10.9144 11.348 11.9278 10.388 13.2078 9.684C14.4878 8.95867 15.9384 8.596 17.5598 8.596C19.1811 8.596 20.6318 8.948 21.9118 9.652C23.1918 10.356 24.2051 11.3267 24.9518 12.564C25.6984 13.78 26.0718 15.156 26.0718 16.692C26.0718 18.228 25.6984 19.6147 24.9518 20.852C24.2051 22.0893 23.1918 23.0707 21.9118 23.796C20.6318 24.5 19.1811 24.852 17.5598 24.852ZM17.5598 20.404C18.2638 20.404 18.8824 20.2547 19.4158 19.956C19.9491 19.636 20.3544 19.1987 20.6318 18.644C20.9304 18.068 21.0798 17.4173 21.0798 16.692C21.0798 15.9667 20.9304 15.3373 20.6318 14.804C20.3331 14.2493 19.9171 13.8227 19.3838 13.524C18.8718 13.204 18.2638 13.044 17.5598 13.044C16.8771 13.044 16.2691 13.204 15.7358 13.524C15.2024 13.8227 14.7864 14.2493 14.4878 14.804C14.1891 15.3587 14.0398 15.9987 14.0398 16.724C14.0398 17.428 14.1891 18.068 14.4878 18.644C14.7864 19.1987 15.2024 19.636 15.7358 19.956C16.2691 20.2547 16.8771 20.404 17.5598 20.404ZM35.1013 31.476C33.3946 31.476 31.8906 31.1773 30.5893 30.58C29.3093 30.004 28.2959 29.1827 27.5493 28.116L30.5573 25.108C31.1119 25.7693 31.7306 26.2707 32.4133 26.612C33.1173 26.9533 33.9599 27.124 34.9413 27.124C36.1573 27.124 37.1066 26.8253 37.7893 26.228C38.4933 25.6307 38.8453 24.788 38.8453 23.7V19.732L39.6773 16.34L38.9413 12.948V8.948H43.7413V23.572C43.7413 25.172 43.3679 26.5587 42.6213 27.732C41.8746 28.9053 40.8506 29.8227 39.5493 30.484C38.2479 31.1453 36.7653 31.476 35.1013 31.476ZM34.8773 24.02C33.4479 24.02 32.1786 23.6787 31.0693 22.996C29.9599 22.3133 29.0853 21.3853 28.4453 20.212C27.8053 19.0387 27.4853 17.7373 27.4853 16.308C27.4853 14.8573 27.8053 13.556 28.4453 12.404C29.0853 11.2307 29.9599 10.3133 31.0693 9.652C32.1786 8.96933 33.4479 8.628 34.8773 8.628C35.9439 8.628 36.8933 8.83067 37.7253 9.236C38.5786 9.62 39.2613 10.1747 39.7733 10.9C40.3066 11.604 40.6053 12.4253 40.6693 13.364V19.284C40.6053 20.2013 40.3066 21.0227 39.7733 21.748C39.2613 22.452 38.5786 23.0067 37.7253 23.412C36.8719 23.8173 35.9226 24.02 34.8773 24.02ZM35.8053 19.668C36.4879 19.668 37.0746 19.5187 37.5653 19.22C38.0773 18.9213 38.4613 18.5267 38.7173 18.036C38.9946 17.524 39.1333 16.948 39.1333 16.308C39.1333 15.668 38.9946 15.092 38.7173 14.58C38.4613 14.068 38.0773 13.6627 37.5653 13.364C37.0746 13.0653 36.4879 12.916 35.8053 12.916C35.1439 12.916 34.5573 13.0653 34.0453 13.364C33.5333 13.6627 33.1386 14.068 32.8613 14.58C32.5839 15.092 32.4453 15.668 32.4453 16.308C32.4453 16.9053 32.5839 17.4707 32.8613 18.004C33.1386 18.516 33.5226 18.9213 34.0133 19.22C34.5253 19.5187 35.1226 19.668 35.8053 19.668ZM54.6848 24.852C53.0848 24.852 51.6341 24.5 50.3328 23.796C49.0528 23.0707 48.0394 22.0893 47.2928 20.852C46.5461 19.6147 46.1728 18.228 46.1728 16.692C46.1728 15.156 46.5461 13.78 47.2928 12.564C48.0394 11.348 49.0528 10.388 50.3328 9.684C51.6128 8.95867 53.0634 8.596 54.6848 8.596C56.3061 8.596 57.7568 8.948 59.0368 9.652C60.3168 10.356 61.3301 11.3267 62.0768 12.564C62.8234 13.78 63.1968 15.156 63.1968 16.692C63.1968 18.228 62.8234 19.6147 62.0768 20.852C61.3301 22.0893 60.3168 23.0707 59.0368 23.796C57.7568 24.5 56.3061 24.852 54.6848 24.852ZM54.6848 20.404C55.3888 20.404 56.0074 20.2547 56.5408 19.956C57.0741 19.636 57.4794 19.1987 57.7568 18.644C58.0554 18.068 58.2048 17.4173 58.2048 16.692C58.2048 15.9667 58.0554 15.3373 57.7568 14.804C57.4581 14.2493 57.0421 13.8227 56.5088 13.524C55.9968 13.204 55.3888 13.044 54.6848 13.044C54.0021 13.044 53.3941 13.204 52.8608 13.524C52.3274 13.8227 51.9114 14.2493 51.6128 14.804C51.3141 15.3587 51.1648 15.9987 51.1648 16.724C51.1648 17.428 51.3141 18.068 51.6128 18.644C51.9114 19.1987 52.3274 19.636 52.8608 19.956C53.3941 20.2547 54.0021 20.404 54.6848 20.404Z" fill="black"/>
</svg>
